<!DOCTYPE svg PUBLIC "-//W3C//DTD SVG 1.1//EN" "http://www.w3.org/Graphics/SVG/1.1/DTD/svg11.dtd">
<!-- Uploaded to: SVG Repo, www.svgrepo.com, Transformed by: SVG Repo Mixer Tools -->
<svg width="230px" height="230px" viewBox="0 -9.85 347.093 347.093" xmlns="http://www.w3.org/2000/svg" fill="#000000">
<g id="SVGRepo_bgCarrier" stroke-width="0"/>
<g id="SVGRepo_tracerCarrier" stroke-linecap="round" stroke-linejoin="round"/>
<g id="SVGRepo_iconCarrier">
<defs>
<style>.a{fill:#ffffff;}.b{fill:#7a7473;}.c{fill:#211715;}.d{fill:#a0a0a0;}.e{fill:#ffda71;}</style>
</defs>
<path class="a" d="M288.148,180.034q2.319-1.078,4.531-2.274l-.706-.6c-3.265-2.236-8.985-6.871-10.077-9.108a56.928,56.928,0,0,1-4.632-12.582l-.33-1.63a42.046,42.046,0,0,1-36.721,8.043c-1.428,2.967-3.277,6.677-3.737,7.442-1.128,1.693-2.292,3.268-4.046,4.04-5.378,2.382-7.271,3.221-11.281,4.949.154.192.31.377.472.556a33.8,33.8,0,0,0,18.629,10.274,58.719,58.719,0,0,0,21.934-.53A135.761,135.761,0,0,0,288.148,180.034Z"/>
<path class="a" d="M219.441,91.693c5.5-4.538,11.712-9.018,16.566-11.207.9-.4,2.013.2,2.329,1.57.639,2.768-.653,6.659,1.463,5.953,3.669-1.224,14.777-8.117,23.325-11.182l8.281,3.416a23.611,23.611,0,0,1,3.676,2.512,29.274,29.274,0,0,1,4.753,5.357c2.679,3.773,6.037,9.96,10.111,19.92l2.817-1.77c2.84-2.775,7.725-2.782,10.965-.485a12.23,12.23,0,0,1,4.7,10.417,20.2,20.2,0,0,1-4.23,10.949,29.134,29.134,0,0,1-12.228,9.366,56.588,56.588,0,0,1-11.222,14.05,45.712,45.712,0,0,1-17.669,10.695,42.177,42.177,0,0,1-23.466.47,41.6,41.6,0,0,1-11.738-5.094,40.245,40.245,0,0,1-10.665-10.461A54.626,54.626,0,0,1,209.053,130a75.737,75.737,0,0,1-3.369-16.2c-.35-3.03-.5-5.6-.563-7.5,0,0-.008-.229-.023-.613,2.268-2.481,5.964-6.519,5.964-6.519C213.353,96.933,216.278,94.3,219.441,91.693Z"/>
<path class="b" d="M308.636,79.727c-1.37-10.656-5.037-21.4-12.1-27.179l-6.49-5.785c-2.3-2.3-10.591-11.741-29.236-13.466-22.1-2.046-38.586,4.99-45.656,12.794l-.571,7.445c-9.529,8.584-14.837,24.147-12.042,45.623.089,1.365.2,2.712.326,4.033.145,1.494.315,2.955.507,4.372.166-.185,7.691-8.408,7.691-8.408,6.274-6.087,17.3-15.222,24.945-18.67.9-.4,2.013.2,2.329,1.57.639,2.768-.653,6.659,1.463,5.953,3.669-1.224,14.777-8.117,23.325-11.182l8.281,3.416a23.611,23.611,0,0,1,3.676,2.512,29.274,29.274,0,0,1,4.753,5.357c2.679,3.773,6.037,9.96,10.111,19.92l2.817-1.77c2.84-2.775,7.725-2.782,10.965-.485a10.231,10.231,0,0,1,2.38,2.382c1.944-4.753,3.162-13.909,3.173-18.089A79.879,79.879,0,0,0,308.636,79.727Z"/>
<path class="c" d="M294.459,107.959c2.207-2.05,5.86-1.823,8.159-.033,2.757,2.146,3.752,5.97,3.34,9.318-1,8.1-8.117,14.107-15.146,17.171a2.415,2.415,0,0,0-.861,3.284,2.46,2.46,0,0,0,3.283.861c7.294-3.18,13.516-8.821,16.375-16.363,2.709-7.145.747-16.576-6.931-19.665a11.089,11.089,0,0,0-11.613,2.033c-2.268,2.107,1.132,5.5,3.394,3.394Z"/>
<path class="c" d="M202.721,106.288a87.356,87.356,0,0,0,5,27.152c3.216,8.7,8.513,17.238,15.873,23.036,14.375,11.325,35.525,11.964,50.823,2.108a61.128,61.128,0,0,0,19.651-20.9c1.536-2.686-2.61-5.107-4.145-2.423a57.116,57.116,0,0,1-15.437,17.452,40.185,40.185,0,0,1-24.2,8.048,39.753,39.753,0,0,1-21.127-6.159c-7.259-4.692-12.717-12.44-15.991-20.341a80.5,80.5,0,0,1-5.644-27.973c-.111-3.08-4.912-3.095-4.8,0Z"/>
<path class="c" d="M308.862,107.611a60.953,60.953,0,0,0,2.661-22.766c-.515-8.212-2.115-16.532-5.731-23.974a29.9,29.9,0,0,0-7.562-10.02,2.466,2.466,0,0,0-3.394,0,2.42,2.42,0,0,0,0,3.394c5.508,4.572,8.348,11.482,10.03,18.271a64.695,64.695,0,0,1,1.789,21.458,56.219,56.219,0,0,1-2.422,12.361c-.978,2.937,3.656,4.2,4.629,1.276Z"/>
<path class="c" d="M200.138,99.159q.26,3.945.761,7.869a2.638,2.638,0,0,0,.7,1.7,2.4,2.4,0,0,0,3.394,0,2.3,2.3,0,0,0,.7-1.7q-.508-3.921-.761-7.869a2.548,2.548,0,0,0-.7-1.7,2.4,2.4,0,0,0-4.1,1.7Z"/>
<path class="c" d="M212.883,51.839c-9.352,8.5-12.973,21.43-13.416,33.7a84.2,84.2,0,0,0,.7,13.706,2.477,2.477,0,0,0,2.4,2.4,2.414,2.414,0,0,0,2.4-2.4c-1.616-12.649-1.073-26.63,5.977-37.7a30.617,30.617,0,0,1,5.332-6.311c2.291-2.083-1.112-5.469-3.394-3.394Z"/>
<path class="c" d="M291.74,45.066a51.8,51.8,0,0,0-6.7-5.829,45.481,45.481,0,0,0-14.932-6.771,70.59,70.59,0,0,0-22.814-1.706,65.032,65.032,0,0,0-19.539,4.355c-5.27,2.144-10.42,5.04-14.3,9.279-2.082,2.275,1.3,5.679,3.394,3.394a32.529,32.529,0,0,1,10.988-7.528,56.763,56.763,0,0,1,17.2-4.493c12.3-1.325,25.682-.157,36.276,6.732a29.281,29.281,0,0,1,4.435,3.418c.9.815,1.74,1.684,2.6,2.543,2.184,2.191,5.578-1.2,3.394-3.394Z"/>
<path class="c" d="M212.759,100.853c6.765-6.544,14.3-13.026,22.671-17.419a13.478,13.478,0,0,0,1.249-.626c.475-.317.218.021-.04-.077-.008,0-.8.028-.621-.133a7.155,7.155,0,0,0,.1.909c.03.6.015,1.2,0,1.8-.036,2.086.179,4.779,2.772,5.136,1.618.223,3.3-.8,4.712-1.49,1.848-.9,3.66-1.88,5.478-2.841a117.981,117.981,0,0,1,14.678-6.967,2.462,2.462,0,0,0,1.676-2.952,2.42,2.42,0,0,0-2.952-1.676,113.722,113.722,0,0,0-13.9,6.437c-1.981,1.039-3.951,2.1-5.942,3.121-.768.394-1.54.784-2.324,1.148l-.4.181s-.624.262-.26.115c.344-.139-.191.062-.207.076-.43.37-.014-.141-.071.1l1.437.827q.165.413.094.136l-.021-.1q.065.39.024-.084c0-.5,0-.988.012-1.483a13.693,13.693,0,0,0-.279-3.569,4.577,4.577,0,0,0-2.456-3.074,4.341,4.341,0,0,0-3.938.319,68.92,68.92,0,0,0-12.133,7.854,147.34,147.34,0,0,0-12.758,10.942c-2.225,2.151,1.171,5.543,3.394,3.394Z"/>
<path class="c" d="M270.194,82.315c4.212,2.363,7.144,6.049,9.6,10.138a119.159,119.159,0,0,1,7.836,16.217,2.477,2.477,0,0,0,2.952,1.676,2.416,2.416,0,0,0,1.676-2.952A125.406,125.406,0,0,0,283.8,89.8c-2.847-4.693-6.343-8.916-11.184-11.632-2.7-1.512-5.12,2.632-2.423,4.145Z"/>
<path class="a" d="M344.576,247.223c0-15.389-1.092-25.93-8.8-37.6-5.183-7.855-12.709-13.918-20.606-19.038-6.657-4.324-11.173-7.292-15.243-9.858-2.433-1.53-4.015-2.425-6.1-3.6-9.507,5.374-20.9,8.969-31.643,11.484a58.719,58.719,0,0,1-21.934.53,33.8,33.8,0,0,1-18.629-10.274c-.307-.34-.592-.7-.886-1.088a215.742,215.742,0,0,0-21.379,10.02,66.557,66.557,0,0,0-5.777,3.593L159.832,250.9a13.1,13.1,0,0,0-5.408,6.371c.368,5.833,7.987,24.806,10.39,30.641a47.691,47.691,0,0,0,6.766,11.331c2.566,3.036,6.375,5.374,10.473,5.31,5.672-.089,13.343-6.391,15.532-11.66-.2,10.122-.468,20.724-.774,31.276h127.52c7.88-2.033,13.784-12.38,14.557-15.165,5.945-21.425,6.237-44.234,5.531-69.556"/>
<path class="c" d="M274.95,156.1a45.189,45.189,0,0,0,2.5,7.826,26.8,26.8,0,0,0,3.383,6.778c2.677,3.356,6.422,6.1,9.933,8.52a2.422,2.422,0,0,0,3.283-.861,2.447,2.447,0,0,0-.861-3.283,41.7,41.7,0,0,1-8.83-7.6c-.239-.3.268.432-.046-.074-.076-.122-.158-.24-.23-.364-.277-.481-.5-1-.735-1.5-.527-1.125-1.024-2.262-1.481-3.416a43.993,43.993,0,0,1-2.284-7.294,2.4,2.4,0,0,0-4.628,1.276Z"/>
<path class="c" d="M222.439,180.346q3.734-1.608,7.45-3.253a29.854,29.854,0,0,0,4.679-2.176,15.237,15.237,0,0,0,3.98-4.385,2.417,2.417,0,0,0-.861-3.284,2.456,2.456,0,0,0-3.283.861,13.451,13.451,0,0,1-1.252,1.7,11.1,11.1,0,0,1-.842.838c-.3.269.033,0-.164.123-.165.106-.329.213-.5.306-1.455.789-3.057,1.375-4.571,2.044q-3.522,1.555-7.058,3.08a2.406,2.406,0,0,0-.861,3.283,2.475,2.475,0,0,0,3.284.861Z"/>
<path class="c" d="M195.39,256.338c.244,17.216-.115,34.44-.542,51.65q-.2,8.092-.437,16.183c-.09,3.09,4.71,3.088,4.8,0,.528-18.265,1-36.537,1.046-54.811q.017-6.512-.067-13.022c-.044-3.086-4.844-3.1-4.8,0Z"/>
<path class="c" d="M253.415,257.539a19.277,19.277,0,0,0-3.09,4.693c-.947,1.968-1.708,4.014-1.112,6.216.572,2.11,2.305,3.957,3.618,5.66,3.321,4.305,6.8,8.485,10.33,12.622,7.712,9.044,15.608,18.012,24.065,26.371,4.581,4.528,9.566,8.824,15.523,11.425a36.08,36.08,0,0,0,21.385,2.144c6.133-1.161,10.929-6.326,14.2-11.33,3.42-5.235,4.459-11.445,5.576-17.507,3.121-16.945,3.409-34.253,3.076-51.431q-.067-3.475-.166-6.952c-.086-3.083-4.886-3.095-4.8,0,.457,16.522.632,33.173-1.544,49.593q-.767,5.776-1.983,11.484-.6,2.805-1.314,5.584c-.2.788-.393,1.587-.636,2.365-.064.207-.435,1.091-.176.52-1.988,4.377-5.16,8.736-9.266,11.331-2.526,1.6-5.356,2.019-8.313,2.217a30.057,30.057,0,0,1-9.354-.748c-6.376-1.6-11.8-5.443-16.534-9.888-7.89-7.411-15.094-15.615-22.2-23.768-3.664-4.2-7.279-8.448-10.792-12.777q-1.126-1.389-2.235-2.792c-.764-.969-.9-1.135-1.607-2.076-.506-.67-1.006-1.344-1.492-2.027a2.914,2.914,0,0,1-.281-3.435,15.3,15.3,0,0,1,2.517-4.1c2.086-2.273-1.3-5.676-3.394-3.394Z"/>
<path class="c" d="M194.79,193.462c8.222-5.578,17.462-9.523,26.583-13.371l-2.71-1.1a33.3,33.3,0,0,0,11.849,9.43,40.085,40.085,0,0,0,14.961,3.721c11.195.835,22.047-1.935,32.57-5.518a101.464,101.464,0,0,0,17-7.424h-2.423c4.8,2.7,9.4,5.692,14.017,8.691,5.336,3.47,10.818,6.793,15.753,10.83a55.224,55.224,0,0,1,12.387,13.791,46.969,46.969,0,0,1,5.98,15.157c1.317,6.418,1.419,13.029,1.424,19.557,0,3.089,4.8,3.094,4.8,0-.008-10.5-.55-21.078-4.779-30.84-4.605-10.626-12.779-18.811-22.136-25.391-4.63-3.255-9.455-6.254-14.209-9.325-1.945-1.257-3.89-2.517-5.864-3.729q-1.632-1-3.3-1.951c-.546-.311-1.086-.66-1.651-.935a2.941,2.941,0,0,0-2.988.316,96.107,96.107,0,0,1-16.564,7.053,107.818,107.818,0,0,1-17.736,4.6,54.713,54.713,0,0,1-10.432.433,41.558,41.558,0,0,1-9.556-1.326c-5.572-1.6-11.366-4.912-14.955-9.559-.586-.759-1.667-1.543-2.71-1.1-9.5,4.009-19.162,8.043-27.729,13.856-2.542,1.724-.143,5.885,2.422,4.144Z"/>
<path class="c" d="M300.732,247.078q.334,10.572.5,21.148c.049,3.086,4.849,3.1,4.8,0q-.166-10.575-.5-21.148c-.1-3.081-4.9-3.095-4.8,0Z"/>
<path class="c" d="M158.621,248.83a16.292,16.292,0,0,0-4.216,3.746c-1.051,1.343-2.422,3.223-2.357,4.992a27.215,27.215,0,0,0,1.406,6.446c1.639,5.567,3.7,11.015,5.8,16.421,2,5.146,3.916,10.388,6.794,15.12a27.732,27.732,0,0,0,7.479,8.654,14.225,14.225,0,0,0,10.714,2.494c3.61-.687,6.934-2.863,9.67-5.229a20.578,20.578,0,0,0,6.261-8.681c.99-2.933-3.644-4.192-4.629-1.276a15.954,15.954,0,0,1-4.238,5.854,18.9,18.9,0,0,1-6.876,4.325c-6.139,1.98-10.986-3.318-14.015-8.2a79.266,79.266,0,0,1-6.053-13.109c-1.915-4.885-3.772-9.8-5.392-14.792a63.492,63.492,0,0,1-1.927-6.9c-.052-.252-.1-.506-.143-.76-.016-.088-.028-.178-.043-.266-.058-.331.121.43.017.136-.15-.427.151-.351-.078-.021.247-.356.4-.806.628-1.182a10.972,10.972,0,0,1,3.621-3.626c2.61-1.638.2-5.793-2.423-4.144Z"/>
<path class="a" d="M267.105,241.288c-.468-.555-.908-1.131-1.321-1.719-2.341-3.332-3.943-7.123-5.724-10.8a117.992,117.992,0,0,0-8.472-14.692,21.264,21.264,0,0,0-3.981-4.732,27.94,27.94,0,0,0-4.961-2.811c-7.376-3.762-15.573-7.507-22.428-10.263-3.357-1.35-6.039-2.469-8.711-1.872a3.943,3.943,0,0,0-2.938,3.168A3.989,3.989,0,0,0,210.261,201a17.816,17.816,0,0,0,3.511,2.277c4.693,2.535,11.716,6.229,16.31,9.14q-4.565,3.382-8.8,7.179c-1.433,1.282-2.8,2.646-2.977,4.56-.277,2.969,1.341,4.986,5.461,6.874-.352,1.474-.507,2.346.281,3.651.986,1.634,2.629,2.665,5.815,2.894a7.32,7.32,0,0,0,1.269,4.514c2.823,4.388,6.283,7.2,11.466,7.232a3.344,3.344,0,0,0,1.777-.411l.509.314c1.387.773,2.823,1.582,3.676,1.989a7.4,7.4,0,0,1,1.958,1.187,8.188,8.188,0,0,1,1.3,1.862c1.782,2.993,4.519,5.325,6.861,7.882,6.043-5.541,11.5-10.919,14.491-16.019A18.119,18.119,0,0,1,267.105,241.288Z"/>
<path class="c" d="M243.673,251.3c1.283.715,2.558,1.449,3.883,2.086.348.167.683.348,1.018.539.508.289-.168-.238.247.175.108.107.212.216.31.332-.28-.332.135.231.153.259.081.129.158.261.236.392.215.365.428.728.663,1.081,1.823,2.748,4.259,4.967,6.5,7.356a2.421,2.421,0,0,0,3.394,0,2.449,2.449,0,0,0,0-3.394c-1.12-1.194-2.3-2.335-3.413-3.531-.532-.569-1.037-1.158-1.54-1.752l-.146-.181c.112.15.119.159.019.026q-.175-.231-.343-.468c-.247-.347-.482-.7-.7-1.067a14.572,14.572,0,0,0-1.5-2.2,7.288,7.288,0,0,0-2.263-1.611c-1.389-.685-2.739-1.433-4.092-2.187a2.4,2.4,0,0,0-2.422,4.145Z"/>
<path class="c" d="M230.489,209.844c-2.914-1.789-5.906-3.447-8.908-5.08-2.855-1.554-5.868-2.949-8.6-4.709-.758-.488-2.455-1.48-1.9-2.562.493-.958,1.816-.936,2.738-.821a21.334,21.334,0,0,1,5.083,1.642q2.492,1,4.96,2.051,5.221,2.241,10.351,4.688c3.465,1.648,7.021,3.256,10.358,5.152,3.119,1.773,4.962,5.018,6.834,7.965q3.074,4.84,5.665,9.963c3.742,7.389,6.783,15.967,14.663,19.958,2.749,1.392,5.182-2.748,2.422-4.145-7.285-3.69-9.859-12.273-13.358-19.052a117.618,117.618,0,0,0-6.371-10.881,40.01,40.01,0,0,0-3.636-4.936,16.856,16.856,0,0,0-4.961-3.634c-7.441-3.775-14.98-7.346-22.686-10.55-3.605-1.5-7.53-3.52-11.545-2.928s-6.758,4.952-4.715,8.7c1.05,1.926,3.074,3.249,4.938,4.288,1.711.953,3.45,1.858,5.175,2.788,3.729,2.01,7.457,4.033,11.069,6.25,2.64,1.621,5.054-2.529,2.423-4.144Z"/>
<path class="c" d="M229.187,210.1c-2.233,1.655-4.425,3.37-6.555,5.157a30.252,30.252,0,0,0-5.379,5.17A7.616,7.616,0,0,0,216.19,227a9.554,9.554,0,0,0,4.5,5.143c2.649,1.606,5.064-2.544,2.423-4.144a7.214,7.214,0,0,1-1.827-1.448c-.283-.3.009.05-.11-.145-.095-.155-.185-.313-.279-.469-.111-.183-.093-.237-.016-.012-.069-.2-.116-.407-.176-.613s-.031-.245-.012-.006c-.015-.187-.022-.374-.021-.562a3.693,3.693,0,0,1,.029-.585c-.05.293.074-.189.1-.274.056-.195-.06.038.106-.263.1-.189.215-.374.336-.554a8.341,8.341,0,0,1,.642-.739,78.936,78.936,0,0,1,9.721-8.081,2.472,2.472,0,0,0,.861-3.283,2.417,2.417,0,0,0-3.284-.861Z"/>
<path class="c" d="M233.88,218.112a39.518,39.518,0,0,0-6.654,4.819,35.425,35.425,0,0,0-2.792,2.8,15.05,15.05,0,0,0-2.462,3.3,8.8,8.8,0,0,0-.887,4,6.678,6.678,0,0,0,1.7,3.982c1.635,1.967,4.094,2.635,6.53,2.922a2.414,2.414,0,0,0,2.4-2.4,2.458,2.458,0,0,0-2.4-2.4c-.146-.017-.811-.15-1.128-.237q-.348-.1-.687-.222c-.253-.094.226.15-.136-.072-.175-.108-.358-.212-.534-.317-.38-.225.123.136-.059-.047-.113-.113-.235-.217-.344-.334-.087-.093-.381-.551-.1-.106a2.776,2.776,0,0,1-.44-.84c-.079-.267.006.293-.009-.157-.021-.619-.111.336.024-.325a4.825,4.825,0,0,1,.891-2.138,31.983,31.983,0,0,1,9.509-8.076,2.4,2.4,0,0,0-2.423-4.145Z"/>
<path class="c" d="M239.006,224.626l-5.058,4.412a43.51,43.51,0,0,0-4.547,4.1c-2.9,3.372-2.159,7.6.232,11.019a17.554,17.554,0,0,0,7.1,6.325c3.123,1.367,7.9,2.285,10.309-.8a5.765,5.765,0,0,0,.415-6.05,8.643,8.643,0,0,0-1.85-2.382c-.392-.384-.8-.746-1.194-1.13-.132-.13-.263-.26-.389-.394s-.263-.284-.387-.433q-.27-.364,0,.141l-.327,1.212a5.327,5.327,0,0,1,1.04-.922l1.294-1.133a2.4,2.4,0,1,0-3.394-3.395c-1.426,1.25-3.484,2.485-3.435,4.612.043,1.9,1.867,3.375,3.132,4.578.553.526,1.924,1.793,1.313,2.442-.231.247-1.771.064-2.323-.033a10.338,10.338,0,0,1-6.015-3.6c-1.422-1.6-3.78-4.524-2.127-6.658a32.49,32.49,0,0,1,4.546-4.1l5.058-4.412a2.423,2.423,0,0,0,0-3.395,2.448,2.448,0,0,0-3.394,0Z"/>
<path class="c" d="M312.722,274.711c-8.888-7.583-17.06-15.934-25.457-24.043-1.768-1.707-3.548-3.4-5.366-5.056q-1.16-1.054-2.342-2.081a10.488,10.488,0,0,0-3.035-2.236,3.6,3.6,0,0,0-3.709.721,15.492,15.492,0,0,0-1.909,3.23,40.6,40.6,0,0,1-4.683,6.107c-2.261,2.5-4.685,4.859-7.148,7.163-2.376,2.225-4.587,4.509-7.706,5.649a2.464,2.464,0,0,0-1.677,2.952,2.421,2.421,0,0,0,2.953,1.676c5.54-2.024,9.653-6.568,13.739-10.656,3.644-3.648,7.378-7.632,9.675-12.3a2.764,2.764,0,0,0,.286-.606l-1.352.593q-.562-.339-.231-.085c.129.289.787.658,1.046.88q1.239,1.06,2.445,2.158c1.714,1.552,3.393,3.143,5.059,4.745,3.886,3.74,7.707,7.546,11.579,11.3,4.7,4.553,9.462,9.038,14.438,13.284a2.464,2.464,0,0,0,3.395,0,2.421,2.421,0,0,0,0-3.394Z"/>
<path class="d" d="M178.957,228.1c2.669-.776,12.424-3.641,18.529-5.532a5.292,5.292,0,0,0,3.532-6.5c-3.443-12.115-11.006-39.121-14.309-51.085a5.285,5.285,0,0,0-6.311-3.742c-7.621,1.789-19.086,4.506-27,6.457a5.293,5.293,0,0,0-3.861,6.467c1.251,4.83,2.746,10.347,4.3,15.544l11.141,42.363Z"/>
<path class="c" d="M156.146,189.061q-1.275-4.278-2.449-8.586-.573-2.1-1.129-4.2a13.9,13.9,0,0,1-.806-3.483c.028-2.078,1.765-2.665,3.465-3.082q3.581-.878,7.166-1.738,7.512-1.806,15.033-3.576c1.7-.4,4.03-1.478,5.671-.493,1.367.819,1.537,2.577,1.927,3.985q6.546,23.636,13.231,47.23c.488,1.72,1.076,3.535-.676,4.776a10.451,10.451,0,0,1-2.961,1.041q-1.924.588-3.852,1.165-6.216,1.867-12.447,3.682c-2.961.861-1.7,5.494,1.276,4.629q6.051-1.76,12.086-3.574a64.893,64.893,0,0,0,7.354-2.317,7.666,7.666,0,0,0,4.507-6.075c.263-2.085-.514-4.091-1.074-6.069q-.825-2.914-1.646-5.83-1.941-6.89-3.872-13.78-3.664-13.072-7.3-26.154c-.6-2.153-1.1-4.339-2.846-5.9a8.191,8.191,0,0,0-7.7-1.644q-7.895,1.854-15.782,3.742-4.513,1.081-9.023,2.182c-3.1.76-5.672,2.055-6.87,5.216-1.153,3.048.236,6.342,1.032,9.309q1.457,5.428,3.053,10.818c.88,2.954,5.514,1.7,4.629-1.276Z"/>
<path class="c" d="M159.651,177.544c1.726-.442,3.455-.872,5.183-1.3a2.4,2.4,0,0,0-1.276-4.629c-1.729.432-3.457.863-5.183,1.3a2.4,2.4,0,0,0,1.276,4.629Z"/>
<path class="a" d="M170.454,254.953a14.294,14.294,0,0,1-6.346.612,4.811,4.811,0,0,1-2.7-1.121c-1.162-1.149-1.091-3-1.153-4.633-.31-8.277-5.431-12.937-9.931-19.9-.9-1.765-4.393-5.634-5.208-9.757a52.555,52.555,0,0,1,.229-9.172,19.607,19.607,0,0,1,.754-4.9,22.3,22.3,0,0,1,1.607-2.976,112.065,112.065,0,0,1,12.715-15.962,6.168,6.168,0,0,1,4.24-1.838,3.411,3.411,0,0,1,3.2,3.322,7.627,7.627,0,0,1-1.256,3.688c-3.878,5.738-7.9,11.809-11.5,16.905,6.615-4.142,15.28-9.243,22.335-13.423,2.258-1.337,4.14-2.453,6.729-2.028a3.988,3.988,0,0,1,3.042,2.581c1.2,4.15-2.813,4.88-3.077,5.688,3.623-.958,5.644-.058,6.4,2.515a4.7,4.7,0,0,1-1.567,4.793l-5.456,4.307,1.259-.265c1.86-.391,3.059-.183,3.964,1.517a4.341,4.341,0,0,1-.587,4.649c-2.243,3.043-5.76,6.181-9.051,9.1,2.751,7.285,2.919,11.4,1.649,18.189a5.062,5.062,0,0,1-.849,2.271A22.5,22.5,0,0,1,170.454,254.953Z"/>
<path class="c" d="M157.735,210.407c7.268-4.492,14.583-8.981,22.025-13.18,1.218-.687,2.92-1.6,4.339-.986a1.462,1.462,0,0,1,.918,1.2c.023.15-.014.676-.008.652-.047.189-.207.4-.122.3-.074.085-.69.629-.394.4-.17.129-.354.24-.533.355-1,.648-2.017,1.274-3.016,1.927-1.93,1.261-3.835,2.558-5.733,3.865-4.389,3.023-8.745,6.093-13.262,8.922-2.612,1.636-.206,5.791,2.422,4.145,4.585-2.872,9-5.991,13.458-9.057,2.23-1.535,4.471-3.054,6.75-4.516,1.57-1.007,3.353-1.905,4.38-3.531a6.423,6.423,0,0,0,.067-6.388,6.78,6.78,0,0,0-6.092-3.238c-2.546.056-4.742,1.287-6.875,2.55q-3.148,1.865-6.294,3.728c-4.837,2.868-9.669,5.747-14.453,8.7-2.623,1.621-.215,5.775,2.423,4.145Z"/>
<path class="c" d="M185.972,204.1a3.168,3.168,0,0,1,1.594.111c-.458-.171.558.422.152.095.328.265-.024-.149.223.251a2.327,2.327,0,0,1-.262,2.747c.212-.254-.21.179-.258.223-.274.248-.58.466-.872.692q-.773.6-1.556,1.183-1.837,1.381-3.7,2.727c-4.373,3.169-8.866,6.179-13.191,9.413a2.474,2.474,0,0,0-.861,3.283,2.417,2.417,0,0,0,3.284.861c3.908-2.922,7.962-5.65,11.924-8.5,2.361-1.7,4.7-3.418,7.006-5.2a9.516,9.516,0,0,0,2.673-2.728,7.042,7.042,0,0,0,.812-4.978,6.333,6.333,0,0,0-6.967-4.985,2.459,2.459,0,0,0-2.4,2.4,2.419,2.419,0,0,0,2.4,2.4Z"/>
<path class="c" d="M185.409,215.705c.042-.009.8-.1.313-.063.215-.015.421-.013.636-.015-.307,0-.25-.073.026.025q.254.081-.144-.071.285.18.073.02c-.123-.257.136.143.2.218-.286-.336.13.255.15.3a2.554,2.554,0,0,1,.158.569c-.025-.314-.053.373-.016.1.031-.229-.075.343-.091.4-.045.157-.274.618-.074.239a7.614,7.614,0,0,1-.5.836,23.46,23.46,0,0,1-1.655,1.972c-3.1,3.4-6.689,6.311-10.081,9.405a2.4,2.4,0,0,0,3.394,3.394c4.161-3.795,8.663-7.33,12.1-11.833a6.84,6.84,0,0,0,1.053-7.21,5.452,5.452,0,0,0-3.027-2.872,7,7,0,0,0-3.789-.039,2.425,2.425,0,0,0-1.676,2.952,2.449,2.449,0,0,0,2.952,1.677Z"/>
<path class="c" d="M157.905,209.408q5.425-7.766,10.645-15.683c1.5-2.273,2.414-5.4.945-7.908a5.955,5.955,0,0,0-7.273-2.5c-2.809.911-4.6,3.264-6.488,5.395q-2.751,3.1-5.266,6.4c-1.687,2.2-3.325,4.46-4.833,6.788a15.1,15.1,0,0,0-2.484,6.763c-.23,2-.387,4.037-.49,6.05-.137,2.7-.247,5.566.75,8.116a33.075,33.075,0,0,0,3.806,6.67c1.287,1.871,2.481,3.795,3.813,5.641,2.847,3.944,5.924,7.951,6.674,12.894.376,2.482-.136,5.19,1.4,7.369,1.64,2.323,4.814,2.825,7.476,2.678a21.559,21.559,0,0,0,8.845-2.623A25.55,25.55,0,0,0,179.165,253a11.3,11.3,0,0,0,3.125-3.188,14.7,14.7,0,0,0,1.211-5,35.948,35.948,0,0,0,.406-4.667,30.737,30.737,0,0,0-1.576-9.514c-.928-2.935-5.563-1.681-4.629,1.276a27.856,27.856,0,0,1,.815,13.839,3.8,3.8,0,0,1-1.194,2.552,18.226,18.226,0,0,1-2.635,2.036,19.591,19.591,0,0,1-5.808,2.575,12.32,12.32,0,0,1-2.839.394c-.786.011-2.192.052-2.84-.476a2.158,2.158,0,0,1-.492-1.576c-.083-1.157-.084-2.308-.232-3.462-.585-4.558-2.678-8.533-5.283-12.254-2.341-3.343-4.674-6.673-6.939-10.067-1.121-1.68-2.456-3.632-2.755-5.677a30.134,30.134,0,0,1,.055-6.508c.122-1.593.195-3.217.419-4.8a12.755,12.755,0,0,1,2.549-5.26,109,109,0,0,1,8.6-11.109c.974-1.1,1.934-2.246,2.991-3.265a3.467,3.467,0,0,1,2.543-1.135c1.786.311.184,2.927-.389,3.791q-5.172,7.8-10.513,15.487a2.421,2.421,0,0,0,.861,3.284,2.452,2.452,0,0,0,3.284-.861Z"/>
<path class="a" d="M50.547,6.646C21.164,16.88,2.364,44.508,2.364,75.719c0,45.75,28.525,74.666,73.745,74.666,14.447,0,27.051-2.819,37.566-8.077,7.484,3.064,13.133,5.237,22.822,8.766-2.438-9.211-3.615-13.9-5.745-21.306,12.391-12.932,19.1-31.429,19.1-54.049,0-39.782-30.306-73.288-73.755-73.288A77.408,77.408,0,0,0,50.547,6.646Z"/>
<path class="c" d="M49.909,4.332A74.263,74.263,0,0,0,10.682,36.278C1.735,51.306-1.275,68.8.476,86.075c1.531,15.111,6.6,29.8,16.316,41.623,9.231,11.238,22.232,18.776,36.248,22.337a94.858,94.858,0,0,0,24.923,2.735,88.6,88.6,0,0,0,30.376-5.511q3.336-1.288,6.547-2.878l-1.849.241c7.545,3.087,15.163,5.975,22.822,8.767,1.775.647,3.389-1.3,2.952-2.953-1.881-7.111-3.715-14.235-5.745-21.306l-.617,2.335c9.611-10.088,15.534-23.057,18.083-36.679,2.538-13.559,2.486-27.829-1.414-41.125a75.114,75.114,0,0,0-18.152-31.2A74.026,74.026,0,0,0,99.717,3.483,81.862,81.862,0,0,0,55.7,2.578c-1.954.506-3.883,1.1-5.791,1.754-2.9,1-1.655,5.639,1.276,4.628a76.977,76.977,0,0,1,46.773-1,69.185,69.185,0,0,1,31.871,20.316A70.84,70.84,0,0,1,146.2,62.027a82.915,82.915,0,0,1,.986,21.4,84.25,84.25,0,0,1-4.737,22.833,62.837,62.837,0,0,1-10.284,18.3q-.825,1.008-1.694,1.979c-.68.76-1.755,1.581-2.031,2.585s.257,2.167.532,3.137q.394,1.4.782,2.793c.948,3.421,1.852,6.855,2.755,10.288q.837,3.183,1.677,6.364l2.952-2.952c-5-1.823-9.994-3.67-14.951-5.61q-3.231-1.265-6.444-2.574a5.807,5.807,0,0,0-2.065-.668,4.442,4.442,0,0,0-1.893.664c-1.078.524-2.169,1.024-3.276,1.483a83.937,83.937,0,0,1-31.468,5.926c-15.932.135-31.992-3.46-45.118-12.709-12.009-8.462-20.2-21.33-24.1-35.519-4.591-16.72-4.286-35.124,2.16-51.306A69.45,69.45,0,0,1,45.12,11.405c1.98-.918,4.006-1.722,6.065-2.445a2.459,2.459,0,0,0,1.676-2.952A2.42,2.42,0,0,0,49.909,4.332Z"/>
<path class="e" d="M100.036,56.182c-16.06,0-43.544.053-55.817.039,2.584,9.113,6.556,23.177,9.46,33.3,12.318-.034,42.762-.119,49.78-.136a2.235,2.235,0,0,0,2.176-1.733c1.3-5.581,5.03-21.813,6.591-28.72a2.24,2.24,0,0,0-2.178-2.735C107.9,56.186,104.39,56.182,100.036,56.182Z"/>
<path class="c" d="M52.91,58.6c6.77.1,13.547.023,20.317.013q14.713-.021,29.427-.032,2.656,0,5.313.007a7.034,7.034,0,0,0,2.078.012c-.285.129.05-.432-.157-.2-.225.249-.258,1.141-.334,1.475q-1.812,7.98-3.652,15.951-.879,3.823-1.762,7.646-.325,1.412-.653,2.823a3.478,3.478,0,0,1-.211.8c.132-.248.355-.021-.047-.109a2.848,2.848,0,0,0-.569,0q-6.148.017-12.3.042-13.03.049-26.061.095l-1.164,0c-3.089,0-3.094,4.8,0,4.8,8.28,0,16.561-.057,24.841-.088q6.846-.025,13.692-.048a10.97,10.97,0,0,0,3.095-.193,4.847,4.847,0,0,0,3.264-3.654c.536-2.178,1.012-4.373,1.516-6.558q1.992-8.646,3.968-17.3c.56-2.453,1.9-5.667.52-8.01-1.44-2.445-4.082-2.286-6.532-2.292-9.64-.024-19.28,0-28.92.018-8.186.013-16.373.06-24.558.006-.371,0-.742,0-1.113-.011-3.09-.046-3.091,4.754,0,4.8Z"/>
<path class="c" d="M60.731,74.582c10.982,0,21.965-.056,32.947-.086q2.55-.007,5.1-.013c3.089,0,3.094-4.8,0-4.8-10.565,0-21.131.061-31.7.087q-3.176.008-6.35.012c-3.089,0-3.094,4.8,0,4.8Z"/>
<path class="c" d="M67.568,64.683C68.163,70.058,68.6,75.457,69.3,80.82a2.478,2.478,0,0,0,2.4,2.4,2.413,2.413,0,0,0,2.4-2.4c-.7-5.363-1.136-10.762-1.731-16.137a2.471,2.471,0,0,0-2.4-2.4,2.416,2.416,0,0,0-2.4,2.4Z"/>
<path class="c" d="M87.419,64.683c-.444,5.539-.91,11.079-1.282,16.624a2.4,2.4,0,1,0,4.8,0c.372-5.545.838-11.085,1.282-16.624a2.419,2.419,0,0,0-2.4-2.4,2.448,2.448,0,0,0-2.4,2.4Z"/>
<path class="c" d="M34.242,49.883q1.926,0,3.851.009a13.246,13.246,0,0,1,1.952,0c-.382-.06-.106-.266-.095.095a7.412,7.412,0,0,0,.442,1.548l.564,1.978q1.441,5.072,2.875,10.145,3.529,12.457,7.078,24.908,1.365,4.767,2.752,9.525c.445,1.515.756,3.268,1.908,4.418,1.442,1.439,3.292,1.352,5.154,1.355l21.739.038q9.9.018,19.8.031c3.089,0,3.094-4.8,0-4.8q-19.849,0-39.7-.066l-1.844,0a6.818,6.818,0,0,0-1.64,0c-.336.1-.281-.212-.046.179a2.488,2.488,0,0,1-.188-.536q-.256-.856-.508-1.715-1.423-4.842-2.8-9.7Q52,74.917,48.5,62.524,46.911,56.911,45.316,51.3c-.473-1.663-.777-3.71-2.093-4.932s-2.87-1.269-4.559-1.273c-1.474,0-2.948-.009-4.422-.01-3.088,0-3.093,4.8,0,4.8Z"/>
<path class="c" d="M64.475,108a5.463,5.463,0,0,1,5.571,5.537c0,3.456-2.155,5.641-5.571,5.641-3.5,0-5.572-2.185-5.572-5.641A5.458,5.458,0,0,1,64.475,108Z"/>
<path class="c" d="M96.292,108a5.463,5.463,0,0,1,5.571,5.537c0,3.456-2.155,5.641-5.571,5.641-3.5,0-5.572-2.185-5.572-5.641A5.458,5.458,0,0,1,96.292,108Z"/>
<path class="c" d="M240.554,123.567a24.675,24.675,0,0,0-.9,2.621c-.425,1.444-.956,3.281.255,4.505a3.98,3.98,0,0,0,.9.648,4.278,4.278,0,0,0,1.054.41,7.385,7.385,0,0,0,1.514.1,2.466,2.466,0,0,0,1.7-.7,2.4,2.4,0,0,0-1.7-4.1,6.665,6.665,0,0,1-.812-.006l.638.086a2.048,2.048,0,0,1-.4-.112l.573.242a2.719,2.719,0,0,1-.536-.321l.485.375a.107.107,0,0,1-.018-.019l.375.486a.256.256,0,0,1-.022-.04l.242.574a.437.437,0,0,1-.022-.095l.085.638a1.66,1.66,0,0,1,.016-.392l-.086.638a14.006,14.006,0,0,1,.608-2.345c.206-.644.416-1.3.679-1.92a2.4,2.4,0,0,0-.242-1.849,2.4,2.4,0,0,0-3.284-.861l-.485.375a2.392,2.392,0,0,0-.617,1.059Z"/>
<path class="c" d="M221.748,112.569c-.707,2.219-.391,7.361,3.652,7.876,5.358.07,5.78-6.131,4.041-9.084C228.017,108.944,223.7,107.866,221.748,112.569Z"/>
<path class="c" d="M267.73,112.757c.669,2.346.09,7.7-4.335,8.063-5.836-.156-6.013-6.645-3.985-9.653C261.07,108.705,265.822,107.765,267.73,112.757Z"/>
<path class="c" d="M238.206,145.581a18.446,18.446,0,0,0,7.626.7,21.483,21.483,0,0,0,8.159-2.325,2.422,2.422,0,0,0,.861-3.284,2.451,2.451,0,0,0-3.283-.861c-.229.124-.46.243-.695.355,0,0-.557.252-.259.122.267-.116-.134.052-.181.07a17.612,17.612,0,0,1-1.674.551c-.581.161-1.17.294-1.763.4-.141.026-.281.05-.422.073-.049.008-.5.079-.212.037s-.163.019-.212.024c-.177.02-.354.039-.532.055a20.391,20.391,0,0,1-3.424.026c-.2-.016-.992-.123-.433-.032-.248-.041-.5-.079-.743-.127a12.134,12.134,0,0,1-1.537-.412,2.416,2.416,0,0,0-2.952,1.676,2.458,2.458,0,0,0,1.676,2.953Z"/>
</g>
</svg>